<?xml version="1.0" encoding="utf-8"?><svg width="2048" height=" 2048" viewBox="0 0 2048 2048" version="1.1" xmlns="http://www.w3.org/2000/svg"><g><line x1="326.6343420366255" y1="721.9771149079396" x2="1479.3065610293304" y2="1759.9002037917041" stroke="#ccc" stroke-width="1" /><line x1="326.6343420366255" y1="721.9771149079396" x2="732.9053112930261" y2="1230.6808907643833" stroke="#ccc" stroke-width="1" /><line x1="326.6343420366255" y1="721.9771149079396" x2="1239.738654225587" y2="1210.8972372140029" stroke="#ccc" stroke-width="1" /><line x1="326.6343420366255" y1="721.9771149079396" x2="839.2625213922922" y2="949.3278288272402" stroke="#ccc" stroke-width="1" /><line x1="326.6343420366255" y1="721.9771149079396" x2="1670.92863482765" y2="764.7449644966337" stroke="#ccc" stroke-width="1" /><line x1="326.6343420366255" y1="721.9771149079396" x2="809.2318922319586" y2="467.8819882574413" stroke="#ccc" stroke-width="1" /><line x1="326.6343420366255" y1="721.9771149079396" x2="299.1350039043165" y2="855.8128068744483" stroke="#ccc" stroke-width="1" /><line x1="326.6343420366255" y1="721.9771149079396" x2="1395.2909762728323" y2="845.2466464203198" stroke="#ccc" stroke-width="1" /><line x1="326.6343420366255" y1="721.9771149079396" x2="1257.847181935731" y2="1091.8900411478648" stroke="#ccc" stroke-width="1" /><line x1="326.6343420366255" y1="721.9771149079396" x2="954.4826302985913" y2="22.409597035895217" stroke="#ccc" stroke-width="1" /><line x1="326.6343420366255" y1="721.9771149079396" x2="1374.5617631399273" y2="1256.6763863927506" stroke="#ccc" stroke-width="1" /><line x1="326.6343420366255" y1="721.9771149079396" x2="788.1722223000269" y2="1212.7922858202965" stroke="#ccc" stroke-width="1" /><line x1="326.6343420366255" y1="721.9771149079396" x2="1036.3753596115241" y2="1433.491343221829" stroke="#ccc" stroke-width="1" /><line x1="326.6343420366255" y1="721.9771149079396" x2="1156.1269455005813" y2="1536.2706648272506" stroke="#ccc" stroke-width="1" /><line x1="1479.3065610293304" y1="1759.9002037917041" x2="732.9053112930261" y2="1230.6808907643833" stroke="#ccc" stroke-width="1" /><line x1="1479.3065610293304" y1="1759.9002037917041" x2="1239.738654225587" y2="1210.8972372140029" stroke="#ccc" stroke-width="1" /><line x1="1479.3065610293304" y1="1759.9002037917041" x2="839.2625213922922" y2="949.3278288272402" stroke="#ccc" stroke-width="1" /><line x1="1479.3065610293304" y1="1759.9002037917041" x2="1670.92863482765" y2="764.7449644966337" stroke="#ccc" stroke-width="1" /><line x1="1479.3065610293304" y1="1759.9002037917041" x2="809.2318922319586" y2="467.8819882574413" stroke="#ccc" stroke-width="1" /><line x1="1479.3065610293304" y1="1759.9002037917041" x2="299.1350039043165" y2="855.8128068744483" stroke="#ccc" stroke-width="1" /><line x1="1479.3065610293304" y1="1759.9002037917041" x2="1395.2909762728323" y2="845.2466464203198" stroke="#ccc" stroke-width="1" /><line x1="1479.3065610293304" y1="1759.9002037917041" x2="1257.847181935731" y2="1091.8900411478648" stroke="#ccc" stroke-width="1" /><line x1="1479.3065610293304" y1="1759.9002037917041" x2="954.4826302985913" y2="22.409597035895217" stroke="#ccc" stroke-width="1" /><line x1="1479.3065610293304" y1="1759.9002037917041" x2="1374.5617631399273" y2="1256.6763863927506" stroke="#ccc" stroke-width="1" /><line x1="1479.3065610293304" y1="1759.9002037917041" x2="788.1722223000269" y2="1212.7922858202965" stroke="#ccc" stroke-width="1" /><line x1="1479.3065610293304" y1="1759.9002037917041" x2="1036.3753596115241" y2="1433.491343221829" stroke="#ccc" stroke-width="1" /><line x1="1479.3065610293304" y1="1759.9002037917041" x2="1156.1269455005813" y2="1536.2706648272506" stroke="#ccc" stroke-width="1" /><line x1="732.9053112930261" y1="1230.6808907643833" x2="1239.738654225587" y2="1210.8972372140029" stroke="#ccc" stroke-width="1" /><line x1="732.9053112930261" y1="1230.6808907643833" x2="839.2625213922922" y2="949.3278288272402" stroke="#ccc" stroke-width="1" /><line x1="732.9053112930261" y1="1230.6808907643833" x2="1670.92863482765" y2="764.7449644966337" stroke="#ccc" stroke-width="1" /><line x1="732.9053112930261" y1="1230.6808907643833" x2="809.2318922319586" y2="467.8819882574413" stroke="#ccc" stroke-width="1" /><line x1="732.9053112930261" y1="1230.6808907643833" x2="299.1350039043165" y2="855.8128068744483" stroke="#ccc" stroke-width="1" /><line x1="732.9053112930261" y1="1230.6808907643833" x2="1395.2909762728323" y2="845.2466464203198" stroke="#ccc" stroke-width="1" /><line x1="732.9053112930261" y1="1230.6808907643833" x2="1257.847181935731" y2="1091.8900411478648" stroke="#ccc" stroke-width="1" /><line x1="732.9053112930261" y1="1230.6808907643833" x2="954.4826302985913" y2="22.409597035895217" stroke="#ccc" stroke-width="1" /><line x1="732.9053112930261" y1="1230.6808907643833" x2="1374.5617631399273" y2="1256.6763863927506" stroke="#ccc" stroke-width="1" /><line x1="732.9053112930261" y1="1230.6808907643833" x2="788.1722223000269" y2="1212.7922858202965" stroke="#ccc" stroke-width="1" /><line x1="732.9053112930261" y1="1230.6808907643833" x2="1036.3753596115241" y2="1433.491343221829" stroke="#ccc" stroke-width="1" /><line x1="732.9053112930261" y1="1230.6808907643833" x2="1156.1269455005813" y2="1536.2706648272506" stroke="#ccc" stroke-width="1" /><line x1="1239.738654225587" y1="1210.8972372140029" x2="839.2625213922922" y2="949.3278288272402" stroke="#ccc" stroke-width="1" /><line x1="1239.738654225587" y1="1210.8972372140029" x2="1670.92863482765" y2="764.7449644966337" stroke="#ccc" stroke-width="1" /><line x1="1239.738654225587" y1="1210.8972372140029" x2="809.2318922319586" y2="467.8819882574413" stroke="#ccc" stroke-width="1" /><line x1="1239.738654225587" y1="1210.8972372140029" x2="299.1350039043165" y2="855.8128068744483" stroke="#ccc" stroke-width="1" /><line x1="1239.738654225587" y1="1210.8972372140029" x2="1395.2909762728323" y2="845.2466464203198" stroke="#ccc" stroke-width="1" /><line x1="1239.738654225587" y1="1210.8972372140029" x2="1257.847181935731" y2="1091.8900411478648" stroke="#ccc" stroke-width="1" /><line x1="1239.738654225587" y1="1210.8972372140029" x2="954.4826302985913" y2="22.409597035895217" stroke="#ccc" stroke-width="1" /><line x1="1239.738654225587" y1="1210.8972372140029" x2="1374.5617631399273" y2="1256.6763863927506" stroke="#ccc" stroke-width="1" /><line x1="1239.738654225587" y1="1210.8972372140029" x2="788.1722223000269" y2="1212.7922858202965" stroke="#ccc" stroke-width="1" /><line x1="1239.738654225587" y1="1210.8972372140029" x2="1036.3753596115241" y2="1433.491343221829" stroke="#ccc" stroke-width="1" /><line x1="1239.738654225587" y1="1210.8972372140029" x2="1156.1269455005813" y2="1536.2706648272506" stroke="#ccc" stroke-width="1" /><line x1="839.2625213922922" y1="949.3278288272402" x2="1670.92863482765" y2="764.7449644966337" stroke="#ccc" stroke-width="1" /><line x1="839.2625213922922" y1="949.3278288272402" x2="809.2318922319586" y2="467.8819882574413" stroke="#ccc" stroke-width="1" /><line x1="839.2625213922922" y1="949.3278288272402" x2="299.1350039043165" y2="855.8128068744483" stroke="#ccc" stroke-width="1" /><line x1="839.2625213922922" y1="949.3278288272402" x2="1395.2909762728323" y2="845.2466464203198" stroke="#ccc" stroke-width="1" /><line x1="839.2625213922922" y1="949.3278288272402" x2="1257.847181935731" y2="1091.8900411478648" stroke="#ccc" stroke-width="1" /><line x1="839.2625213922922" y1="949.3278288272402" x2="954.4826302985913" y2="22.409597035895217" stroke="#ccc" stroke-width="1" /><line x1="839.2625213922922" y1="949.3278288272402" x2="1374.5617631399273" y2="1256.6763863927506" stroke="#ccc" stroke-width="1" /><line x1="839.2625213922922" y1="949.3278288272402" x2="788.1722223000269" y2="1212.7922858202965" stroke="#ccc" stroke-width="1" /><line x1="839.2625213922922" y1="949.3278288272402" x2="1036.3753596115241" y2="1433.491343221829" stroke="#ccc" stroke-width="1" /><line x1="839.2625213922922" y1="949.3278288272402" x2="1156.1269455005813" y2="1536.2706648272506" stroke="#ccc" stroke-width="1" /><line x1="1670.92863482765" y1="764.7449644966337" x2="809.2318922319586" y2="467.8819882574413" stroke="#ccc" stroke-width="1" /><line x1="1670.92863482765" y1="764.7449644966337" x2="299.1350039043165" y2="855.8128068744483" stroke="#ccc" stroke-width="1" /><line x1="1670.92863482765" y1="764.7449644966337" x2="1395.2909762728323" y2="845.2466464203198" stroke="#ccc" stroke-width="1" /><line x1="1670.92863482765" y1="764.7449644966337" x2="1257.847181935731" y2="1091.8900411478648" stroke="#ccc" stroke-width="1" /><line x1="1670.92863482765" y1="764.7449644966337" x2="954.4826302985913" y2="22.409597035895217" stroke="#ccc" stroke-width="1" /><line x1="1670.92863482765" y1="764.7449644966337" x2="1374.5617631399273" y2="1256.6763863927506" stroke="#ccc" stroke-width="1" /><line x1="1670.92863482765" y1="764.7449644966337" x2="788.1722223000269" y2="1212.7922858202965" stroke="#ccc" stroke-width="1" /><line x1="1670.92863482765" y1="764.7449644966337" x2="1036.3753596115241" y2="1433.491343221829" stroke="#ccc" stroke-width="1" /><line x1="1670.92863482765" y1="764.7449644966337" x2="1156.1269455005813" y2="1536.2706648272506" stroke="#ccc" stroke-width="1" /><line x1="809.2318922319586" y1="467.8819882574413" x2="299.1350039043165" y2="855.8128068744483" stroke="#ccc" stroke-width="1" /><line x1="809.2318922319586" y1="467.8819882574413" x2="1395.2909762728323" y2="845.2466464203198" stroke="#ccc" stroke-width="1" /><line x1="809.2318922319586" y1="467.8819882574413" x2="1257.847181935731" y2="1091.8900411478648" stroke="#ccc" stroke-width="1" /><line x1="809.2318922319586" y1="467.8819882574413" x2="954.4826302985913" y2="22.409597035895217" stroke="#ccc" stroke-width="1" /><line x1="809.2318922319586" y1="467.8819882574413" x2="1374.5617631399273" y2="1256.6763863927506" stroke="#ccc" stroke-width="1" /><line x1="809.2318922319586" y1="467.8819882574413" x2="788.1722223000269" y2="1212.7922858202965" stroke="#ccc" stroke-width="1" /><line x1="809.2318922319586" y1="467.8819882574413" x2="1036.3753596115241" y2="1433.491343221829" stroke="#ccc" stroke-width="1" /><line x1="809.2318922319586" y1="467.8819882574413" x2="1156.1269455005813" y2="1536.2706648272506" stroke="#ccc" stroke-width="1" /><line x1="299.1350039043165" y1="855.8128068744483" x2="1395.2909762728323" y2="845.2466464203198" stroke="#ccc" stroke-width="1" /><line x1="299.1350039043165" y1="855.8128068744483" x2="1257.847181935731" y2="1091.8900411478648" stroke="#ccc" stroke-width="1" /><line x1="299.1350039043165" y1="855.8128068744483" x2="954.4826302985913" y2="22.409597035895217" stroke="#ccc" stroke-width="1" /><line x1="299.1350039043165" y1="855.8128068744483" x2="1374.5617631399273" y2="1256.6763863927506" stroke="#ccc" stroke-width="1" /><line x1="299.1350039043165" y1="855.8128068744483" x2="788.1722223000269" y2="1212.7922858202965" stroke="#ccc" stroke-width="1" /><line x1="299.1350039043165" y1="855.8128068744483" x2="1036.3753596115241" y2="1433.491343221829" stroke="#ccc" stroke-width="1" /><line x1="299.1350039043165" y1="855.8128068744483" x2="1156.1269455005813" y2="1536.2706648272506" stroke="#ccc" stroke-width="1" /><line x1="1395.2909762728323" y1="845.2466464203198" x2="1257.847181935731" y2="1091.8900411478648" stroke="#ccc" stroke-width="1" /><line x1="1395.2909762728323" y1="845.2466464203198" x2="954.4826302985913" y2="22.409597035895217" stroke="#ccc" stroke-width="1" /><line x1="1395.2909762728323" y1="845.2466464203198" x2="1374.5617631399273" y2="1256.6763863927506" stroke="#ccc" stroke-width="1" /><line x1="1395.2909762728323" y1="845.2466464203198" x2="788.1722223000269" y2="1212.7922858202965" stroke="#ccc" stroke-width="1" /><line x1="1395.2909762728323" y1="845.2466464203198" x2="1036.3753596115241" y2="1433.491343221829" stroke="#ccc" stroke-width="1" /><line x1="1395.2909762728323" y1="845.2466464203198" x2="1156.1269455005813" y2="1536.2706648272506" stroke="#ccc" stroke-width="1" /><line x1="1257.847181935731" y1="1091.8900411478648" x2="954.4826302985913" y2="22.409597035895217" stroke="#ccc" stroke-width="1" /><line x1="1257.847181935731" y1="1091.8900411478648" x2="1374.5617631399273" y2="1256.6763863927506" stroke="#ccc" stroke-width="1" /><line x1="1257.847181935731" y1="1091.8900411478648" x2="788.1722223000269" y2="1212.7922858202965" stroke="#ccc" stroke-width="1" /><line x1="1257.847181935731" y1="1091.8900411478648" x2="1036.3753596115241" y2="1433.491343221829" stroke="#ccc" stroke-width="1" /><line x1="1257.847181935731" y1="1091.8900411478648" x2="1156.1269455005813" y2="1536.2706648272506" stroke="#ccc" stroke-width="1" /><line x1="954.4826302985913" y1="22.409597035895217" x2="1374.5617631399273" y2="1256.6763863927506" stroke="#ccc" stroke-width="1" /><line x1="954.4826302985913" y1="22.409597035895217" x2="788.1722223000269" y2="1212.7922858202965" stroke="#ccc" stroke-width="1" /><line x1="954.4826302985913" y1="22.409597035895217" x2="1036.3753596115241" y2="1433.491343221829" stroke="#ccc" stroke-width="1" /><line x1="954.4826302985913" y1="22.409597035895217" x2="1156.1269455005813" y2="1536.2706648272506" stroke="#ccc" stroke-width="1" /><line x1="1374.5617631399273" y1="1256.6763863927506" x2="788.1722223000269" y2="1212.7922858202965" stroke="#ccc" stroke-width="1" /><line x1="1374.5617631399273" y1="1256.6763863927506" x2="1036.3753596115241" y2="1433.491343221829" stroke="#ccc" stroke-width="1" /><line x1="1374.5617631399273" y1="1256.6763863927506" x2="1156.1269455005813" y2="1536.2706648272506" stroke="#ccc" stroke-width="1" /><line x1="788.1722223000269" y1="1212.7922858202965" x2="1036.3753596115241" y2="1433.491343221829" stroke="#ccc" stroke-width="1" /><line x1="788.1722223000269" y1="1212.7922858202965" x2="1156.1269455005813" y2="1536.2706648272506" stroke="#ccc" stroke-width="1" /><line x1="1036.3753596115241" y1="1433.491343221829" x2="1156.1269455005813" y2="1536.2706648272506" stroke="#ccc" stroke-width="1" /></g><g><circle cx="326.6343420366255" cy="721.9771149079396" r="52.82458695251965" fill="#999" /><circle cx="1479.3065610293304" cy="1759.9002037917041" r="52.82458695251965" fill="#999" /><circle cx="732.9053112930261" cy="1230.6808907643833" r="52.82458695251965" fill="#999" /><circle cx="1239.738654225587" cy="1210.8972372140029" r="52.82458695251965" fill="#999" /><circle cx="839.2625213922922" cy="949.3278288272402" r="52.82458695251965" fill="#999" /><circle cx="1670.92863482765" cy="764.7449644966337" r="52.82458695251965" fill="#999" /><circle cx="809.2318922319586" cy="467.8819882574413" r="52.82458695251965" fill="#999" /><circle cx="299.1350039043165" cy="855.8128068744483" r="52.82458695251965" fill="#999" /><circle cx="1395.2909762728323" cy="845.2466464203198" r="52.82458695251965" fill="#999" /><circle cx="1257.847181935731" cy="1091.8900411478648" r="52.82458695251965" fill="#999" /><circle cx="954.4826302985913" cy="22.409597035895217" r="52.82458695251965" fill="#999" /><circle cx="1374.5617631399273" cy="1256.6763863927506" r="52.82458695251965" fill="#999" /><circle cx="788.1722223000269" cy="1212.7922858202965" r="52.82458695251965" fill="#999" /><circle cx="1036.3753596115241" cy="1433.491343221829" r="52.82458695251965" fill="#999" /><circle cx="1156.1269455005813" cy="1536.2706648272506" r="52.82458695251965" fill="#999" /></g><g><text x="384.7413876843971" y="735.1832616460695" font-family="sans-serif" font-size="52.82458695251965">EG (21)</text><text x="1537.413606677102" y="1773.1063505298341" font-family="sans-serif" font-size="52.82458695251965">EL (16)</text><text x="791.0123569407978" y="1243.8870375025133" font-family="sans-serif" font-size="52.82458695251965">FL (22)</text><text x="1297.8456998733586" y="1224.1033839521328" font-family="sans-serif" font-size="52.82458695251965">VA (20)</text><text x="897.3695670400639" y="962.53397556537" font-family="sans-serif" font-size="52.82458695251965">UA (19)</text><text x="1729.0356804754217" y="777.9511112347635" font-family="sans-serif" font-size="52.82458695251965">WW (4)</text><text x="867.3389378797302" y="481.08813499557124" font-family="sans-serif" font-size="52.82458695251965">XY (24)</text><text x="357.2420495520881" y="869.0189536125781" font-family="sans-serif" font-size="52.82458695251965">FX (14)</text><text x="1453.398021920604" y="858.4527931584497" font-family="sans-serif" font-size="52.82458695251965">OY (13)</text><text x="1315.9542275835026" y="1105.0961878859948" font-family="sans-serif" font-size="52.82458695251965">GQ (18)</text><text x="1012.589675946363" y="35.615743774025134" font-family="sans-serif" font-size="52.82458695251965">AW (25)</text><text x="1432.668808787699" y="1269.8825331308806" font-family="sans-serif" font-size="52.82458695251965">CR (8)</text><text x="846.2792679477985" y="1225.9984325584264" font-family="sans-serif" font-size="52.82458695251965">TU (7)</text><text x="1094.4824052592958" y="1446.697489959959" font-family="sans-serif" font-size="52.82458695251965">OZ (10)</text><text x="1214.233991148353" y="1549.4768115653806" font-family="sans-serif" font-size="52.82458695251965">YI (15)</text></g></svg>